<?xml version="1.0" standalone="no"?>
<!DOCTYPE svg PUBLIC "-//W3C//DTD SVG 20010904//EN"
 "http://www.w3.org/TR/2001/REC-SVG-20010904/DTD/svg10.dtd">
<svg version="1.0" xmlns="http://www.w3.org/2000/svg"
 width="71.000000pt" height="71.000000pt" viewBox="0 0 71.000000 71.000000"
 preserveAspectRatio="xMidYMid meet">

<g transform="translate(0.000000,71.000000) scale(0.100000,-0.100000)"
fill="#000000" stroke="none">
<path d="M264 551 c-17 -10 -36 -32 -43 -49 -14 -33 -11 -100 4 -92 5 3 8 15
7 27 -5 35 26 90 59 103 35 15 100 8 134 -14 35 -23 58 -71 50 -107 -4 -16
-27 -53 -51 -81 -26 -31 -51 -73 -59 -102 -8 -26 -20 -55 -26 -62 -23 -28 -78
-11 -92 28 -2 7 -8 10 -12 6 -14 -13 13 -58 42 -69 46 -17 79 5 103 67 11 30
20 58 20 63 0 4 14 20 31 37 93 88 87 198 -13 250 -39 20 -117 18 -154 -5z"/>
<path d="M281 494 c-26 -34 -26 -58 0 -100 16 -26 18 -38 10 -53 -16 -30 -14
-81 4 -81 11 0 13 7 9 29 -4 16 -1 32 5 35 16 10 14 49 -4 72 -8 10 -15 25
-15 32 0 15 32 16 48 0 6 -6 15 -9 18 -5 11 11 -27 47 -49 47 -16 0 -17 3 -7
15 31 37 120 -2 120 -51 0 -15 -13 -38 -30 -55 -16 -17 -37 -40 -45 -52 -17
-24 -20 -57 -5 -57 6 0 10 7 10 15 0 8 20 37 45 65 34 39 45 59 45 84 0 75
-114 117 -159 60z"/>
</g>
</svg>
